<?xml version="1.0" standalone="no"?>
<!DOCTYPE svg PUBLIC "-//W3C//DTD SVG 20010904//EN"
 "http://www.w3.org/TR/2001/REC-SVG-20010904/DTD/svg10.dtd">
<svg version="1.0" xmlns="http://www.w3.org/2000/svg"
 width="950.000000pt" height="950.000000pt" viewBox="0 0 950.000000 950.000000"
 preserveAspectRatio="xMidYMid meet">
<metadata>
Created by potrace 1.11, written by Peter Selinger 2001-2013
</metadata>
<g transform="translate(0.000000,950.000000) scale(0.100000,-0.100000)"
fill="#000000" stroke="none">
<path d="M0 6134 c0 -1851 3 -3363 7 -3361 20 12 291 139 605 282 l346 158
-20 51 c-129 323 -225 722 -263 1098 -18 181 -21 579 -5 753 115 1257 779
2382 1815 3072 632 422 1379 666 2115 692 l185 6 93 175 c51 96 124 235 163
308 l70 132 -2555 0 -2556 0 0 -3366z"/>
<path d="M5309 9185 l-166 -315 31 -4 c17 -3 58 -8 91 -11 114 -12 350 -55
492 -90 1006 -248 1878 -861 2451 -1722 363 -544 586 -1156 668 -1833 25 -204
25 -685 1 -895 -84 -702 -332 -1364 -721 -1918 -42 -60 -76 -112 -76 -116 0
-4 26 -13 58 -20 31 -7 347 -84 701 -172 354 -87 648 -159 653 -159 4 0 8
1703 8 3785 l0 3785 -2012 0 -2013 -1 -166 -314z"/>
<path d="M4467 8549 c-786 -65 -1548 -382 -2157 -898 -138 -117 -369 -354
-476 -487 -472 -588 -741 -1235 -836 -2014 -20 -162 -17 -651 5 -825 24 -183
77 -450 121 -601 36 -123 110 -339 124 -361 6 -9 184 68 642 278 349 160 647
296 662 302 l28 12 -371 830 c-203 457 -372 839 -375 850 -4 18 39 39 383 192
213 94 390 170 393 168 3 -2 71 -148 150 -325 142 -319 144 -322 158 -293 8
15 388 730 845 1588 456 858 833 1568 838 1578 11 19 21 19 -134 6z"/>
<path d="M4967 8538 c-8 -13 -438 -820 -955 -1795 l-941 -1771 362 -813 362
-814 655 -167 c360 -92 659 -166 665 -165 5 2 41 133 81 291 40 158 75 290 78
293 3 4 70 -56 149 -133 78 -76 276 -269 440 -428 l298 -289 687 -168 c378
-93 731 -179 784 -192 l96 -24 80 106 c363 484 597 1019 706 1613 80 432 80
922 0 1356 -197 1077 -847 2019 -1775 2575 -281 168 -609 312 -909 398 -237
68 -513 119 -720 134 -47 3 -95 8 -107 11 -16 3 -27 -3 -36 -18z"/>
<path d="M2055 3359 c-357 -164 -654 -300 -660 -302 -17 -6 117 -247 237 -426
137 -204 277 -372 472 -566 901 -898 2210 -1286 3453 -1024 677 143 1286 458
1806 933 65 60 116 110 114 113 -3 2 -314 80 -693 173 l-687 168 -591 -169
c-325 -93 -596 -169 -602 -169 -7 0 17 113 63 297 40 163 70 299 66 303 -12
10 -1053 274 -1058 268 -3 -3 58 -146 134 -319 77 -173 137 -317 133 -321 -9
-9 -774 -349 -778 -346 -1 2 -169 379 -374 838 -205 459 -375 838 -378 841 -4
3 -299 -128 -657 -292z"/>
<path d="M685 2733 c-220 -101 -434 -200 -475 -219 -41 -19 -105 -49 -143 -66
l-67 -31 0 -1208 0 -1209 4750 0 4750 0 0 798 0 797 -323 79 c-177 43 -549
135 -826 203 l-504 123 -161 -159 c-89 -88 -183 -178 -211 -202 -662 -564
-1458 -902 -2314 -984 -178 -17 -541 -19 -716 -5 -1394 120 -2621 918 -3286
2138 -37 68 -69 125 -71 126 -1 2 -183 -80 -403 -181z"/>
</g>
</svg>
